<?xml version="1.0" standalone="no"?>
<!DOCTYPE svg PUBLIC "-//W3C//DTD SVG 20010904//EN"
 "http://www.w3.org/TR/2001/REC-SVG-20010904/DTD/svg10.dtd">
<svg version="1.0" xmlns="http://www.w3.org/2000/svg"
 width="16.000000pt" height="16.000000pt" viewBox="0 0 16.000000 16.000000"
 preserveAspectRatio="xMidYMid meet">
<metadata>
Created by potrace 1.11, written by Peter Selinger 2001-2013
</metadata>
<g transform="translate(0.000000,16.000000) scale(0.002667,-0.002667)"
fill="#000000" stroke="none">
<path d="M2877 5934 c-1 -1 -45 -5 -98 -8 -52 -4 -106 -8 -120 -11 -13 -2 -44
-6 -69 -10 -122 -17 -146 -22 -290 -56 -934 -222 -1720 -926 -2056 -1840 -55
-151 -113 -364 -130 -479 -3 -19 -9 -57 -14 -85 -5 -27 -12 -79 -15 -115 -4
-36 -9 -83 -11 -105 -6 -51 -6 -420 0 -460 2 -16 7 -59 10 -95 4 -36 9 -76 11
-90 3 -14 7 -41 10 -60 167 -1059 947 -1969 1975 -2306 100 -33 261 -77 325
-88 17 -3 39 -8 50 -10 11 -2 43 -7 70 -11 28 -5 52 -9 55 -10 3 -1 41 -5 85
-10 44 -4 91 -10 105 -12 35 -4 428 -4 465 1 17 2 62 6 100 10 39 4 77 9 85
11 8 2 35 7 60 10 71 10 176 33 295 65 538 144 1061 471 1425 890 36 41 68 77
71 80 6 5 125 165 147 196 160 235 282 481 368 744 30 91 76 262 88 325 30
159 36 199 52 365 7 73 7 406 0 460 -2 19 -7 64 -11 100 -8 77 -11 98 -24 170
-18 104 -21 115 -45 215 -242 973 -978 1762 -1937 2075 -79 26 -152 47 -189
55 -8 2 -48 11 -89 19 -40 9 -76 18 -80 20 -3 2 -28 7 -56 10 -76 10 -138 18
-160 22 -46 9 -450 24 -458 18z m-996 -1847 c0 -12 2 -377 3 -812 3 -826 4
-847 47 -940 21 -45 91 -133 129 -163 45 -35 124 -71 185 -85 249 -57 496 102
551 354 4 19 8 394 10 834 2 440 3 807 4 816 0 14 24 16 190 17 l190 1 0 -657
c1 -1016 1 -1012 56 -1128 29 -61 114 -151 179 -189 25 -15 71 -34 102 -42
213 -56 425 32 529 221 58 106 56 81 60 956 1 443 3 812 3 821 1 15 21 17 186
16 l186 -1 -4 -830 c-2 -457 -6 -847 -10 -866 -4 -19 -10 -48 -14 -65 -4 -16
-7 -32 -8 -35 -5 -24 -33 -95 -56 -141 -83 -166 -224 -303 -384 -371 -149 -63
-224 -78 -370 -74 -123 4 -139 7 -245 42 -152 51 -279 125 -372 217 l-55 55
-54 -55 c-121 -125 -277 -212 -444 -247 -76 -16 -233 -14 -315 4 -285 61 -515
266 -604 536 -43 131 -45 172 -45 1020 l-1 812 185 0 c183 0 185 0 186 -21z"/>
</g>
</svg>
